# AST/ASF file generated using VICON BodyLanguage
# -----------------------------------------------
:version 1.10
:name VICON
:units
  mass 1.0
  length 0.45
  angle deg
:documentation
   .ast/.asf automatically generated from VICON data using
   VICON BodyBuilder and BodyLanguage model FoxedUp or BRILLIANT.MOD
:root
   order TX TY TZ RX RY RZ
   axis XYZ
   position 0 0 0  
   orientation 0 0 0 
:bonedata
  begin
     id 1 
     name lhipjoint
     direction 0.623529 -0.717805 0.309788 
     length 2.23224 
     axis 0 0 0  XYZ
  end
  begin
     id 2 
     name lfemur
     direction 0.34202 -0.939693 0  
     length 7.11402  
     axis 0 0 20  XYZ
    dof rx ry rz
    limits (-160.0 20.0)
           (-70.0 70.0)
           (-60.0 70.0)
  end
  begin
     id 3 
     name ltibia
     direction 0.34202 -0.939693 0   
     length 6.78496   
     axis 0 0 20   XYZ
    dof rx
    limits (-10.0 170.0)
  end
  begin
     id 4 
     name lfoot
     direction 0.125078 -0.343648 0.930732   
     length 1.84054   
     axis -90 7.62852e-016 20   XYZ
    dof rx rz
    limits (-45.0 90.0)
           (-70.0 20.0)
  end
  begin
     id 5 
     name ltoes
     direction 1.53565e-011 -4.21893e-011 1   
     length 0.916474   
     axis -90 7.62852e-016 20   XYZ
    dof rx
    limits (-90.0 20.0)
  end
  begin
     id 6 
     name rhipjoint
     direction -0.564688 -0.757748 0.327026   
     length 2.11457  
     axis 0 0 0  XYZ 
  end
  begin
     id 7 
     name rfemur
     direction -0.34202 -0.939693 0   
     length 7.14609   
     axis 0 0 -20   XYZ
    dof rx ry rz
    limits (-160.0 20.0)
           (-70.0 70.0)
           (-70.0 60.0)
  end
  begin
     id 8 
     name rtibia
     direction -0.34202 -0.939693 0   
     length 6.78101   
     axis 0 0 -20   XYZ
    dof rx
    limits (-10.0 170.0)
 end
 begin
     id 9 
     name rfoot
     direction -0.0992671 -0.272734 0.956955   
     length 1.96168  
     axis -90 -7.62852e-016 -20   XYZ
    dof rx rz
    limits (-45.0 90.0)
           (-20.0 70.0)
  end
  begin
     id 10 
     name rtoes
     direction -1.5356e-011 -4.21891e-011 1   
     length 0.982933   
     axis -90 -7.62852e-016 -20   XYZ
    dof rx
    limits (-90.0 20.0)
  end
  begin
     id 11 
     name lowerback
     direction -0.00596953 0.998668 0.0512524   
     length 1.87557   
     axis 0 0 0   XYZ
    dof rx ry rz
    limits (-20.0 45.0)
           (-30.0 30.0)
           (-30.0 30.0)
  end
  begin
     id 12 
     name upperback
     direction 0.00584879 0.999652 0.0257308   
     length 1.87883   
     axis 0 0 0   XYZ
    dof rx ry rz
    limits (-20.0 45.0)
           (-30.0 30.0)
           (-30.0 30.0)
  end
  begin
     id 13 
     name thorax
     direction 0.010104 0.999947 0.00178881   
     length 1.87779   
     axis 0 0 0   XYZ
    dof rx ry rz
    limits (-20.0 45.0)
           (-30.0 30.0)
           (-30.0 30.0)
  end
  begin
     id 14 
     name lowerneck
     direction 0.0120771 0.995934 -0.0892773   
     length 1.40897   
     axis 0 0 0   XYZ
    dof rx ry rz
    limits (-20.0 45.0)
           (-30.0 30.0)
           (-30.0 30.0)
  end
  begin
     id 15 
     name upperneck
     direction -0.030568 0.999465 -0.0116366   
     length 1.38661   
     axis 0 0 0   XYZ
    dof rx ry rz
    limits (-20.0 45.0)
           (-30.0 30.0)
           (-30.0 30.0)
  end
  begin
     id 16
     name head
     direction -0.0170715 0.999854 -0.00104426  
     length 1.47052  
     axis 0 0 0   XYZ
    dof rx ry rz
    limits (-20.0 45.0)
           (-30.0 30.0)
           (-30.0 30.0)
  end
  begin
     id 17 
     name lclavicle
     direction 0.977763 0.206143 0.038532  
     length 3.02424  
     axis 0 0 0   XYZ
    dof ry rz
    limits (-20.0 10.0)
           (0.0 20.0)
  end
  begin
     id 18 
     name lhumerus
     direction 1 -4.48965e-011 -2.62654e-027   
     length 4.68382   
     axis 180 -30 -90   XYZ
    dof rx ry rz
    limits (-60.0 90.0)
           (-90.0 90.0)
           (-90.0 90.0)
  end
  begin
     id 19
     name lradius
     direction 1 -4.48973e-011 -1.54954e-027   
     length 2.98124   
     axis 180 -30 -90   XYZ
    dof rx
    limits (-10.0 170.0)
  end
  begin
     id 20
     name lwrist
     direction 1 -4.48959e-011 7.20928e-028   
     length 1.49062   
     axis -5.52449e-016 90 90   XYZ
    dof ry
    limits (-180.0 0.0)
 end
  begin
     id 21 
     name lhand
     direction 1 -4.48971e-011 1.44186e-027   
     length 0.707595   
     axis -9.20027e-016 90 90   XYZ
    dof rx rz
    limits (-90.0 90.0)
           (-45.0 45.0)
  end
  begin
     id 22 
     name lfingers
     direction 1 -4.48985e-011 2.88371e-027   
     length 0.570481   
     axis -1.84005e-015 90 90   XYZ
    dof rx
    limits (0.0 90.0)
  end
  begin
     id 23
     name lthumb
     direction 0.707107 -6.34929e-011 0.707107   
     length 0.819101   
     axis -90 45 2.85299e-015   XYZ
    dof rx rz
    limits (-45.0 45.0)
           (-45.0 45.0)
  end
  begin
     id 24 
     name rclavicle
     direction -0.958661 0.284411 -0.00895327   
     length 3.11921  
     axis 0 0 0   XYZ 
    dof ry rz
    limits (-10.0 20.0)
           (-20.0 0.0)
  end
  begin
     id 25 
     name rhumerus
     direction -1 -4.48963e-011 -4.22193e-027  
     length 4.75876   
     axis 180 30 90   XYZ
    dof rx ry rz
    limits (-90.0 60.0)
           (-90.0 90.0)
           (-90.0 90.0)
  end
  begin
     id 26 
     name rradius
     direction -1 -4.48968e-011 -1.07616e-027   
     length 2.93293   
     axis 180 30 90   XYZ
    dof rx
    limits (-10.0 170.0)
  end
  begin
     id 27 
     name rwrist
     direction -1 -4.48965e-011 7.20928e-028   
     length 1.46647   
     axis -5.52449e-016 -90 -90   XYZ
    dof ry
    limits (-180.0 0.0)
  end
  begin
     id 28
     name rhand
     direction -1 -4.48971e-011 1.44186e-027   
     length 0.831748   
     axis -9.20027e-016 -90 -90   XYZ
    dof rx rz
    limits (-90.0 90.0)
           (-45.0 45.0)
  end
  begin
     id 29
     name rfingers
     direction -1 -4.48961e-011 2.88371e-027   
     length 0.670577   
     axis -1.84005e-015 -90 -90   XYZ
    dof rx
    limits (0.0 90.0)
  end
  begin
     id 30
     name rthumb
     direction -0.707107 -6.34929e-011 0.707107   
     length 0.962818   
     axis -90 -45 -2.85299e-015   XYZ
    dof rx rz
    limits (-45.0 45.0)
           (-45.0 45.0)
  end
:hierarchy
  begin
    root lhipjoint rhipjoint lowerback
    lhipjoint lfemur
    lfemur ltibia
    ltibia lfoot
    lfoot ltoes
    rhipjoint rfemur
    rfemur rtibia
    rtibia rfoot
    rfoot rtoes
    lowerback upperback
    upperback thorax
    thorax lowerneck lclavicle rclavicle
    lowerneck upperneck
    upperneck head
    lclavicle lhumerus
    lhumerus lradius
    lradius lwrist
    lwrist lhand lthumb
    lhand lfingers
    rclavicle rhumerus
    rhumerus rradius
    rradius rwrist
    rwrist rhand rthumb
    rhand rfingers
  end

#!OML:ASF E:\id_vita\Project 1\Capture day 1\Session 1\Female.ASF
:FULLY-SPECIFIED
:DEGREES
131
root -22.199 15.8953 -4.67107 -149.871 -74.5089 -162.087
lowerback 7.34806 1.37636 -0.965335
upperback 3.34795 1.63862 -0.865002
thorax -0.666611 0.767742 -0.474455
lowerneck -13.9166 2.17445 -4.1688
upperneck -2.3043 3.35074 1.07476
head 1.54818 1.65825 1.24302
rclavicle 3.4191e-014 -1.92821e-014
rhumerus 14.2472 21.8286 -94.53
rradius 20.7953
rwrist 9.70254
rhand -24.1346 5.08433
rfingers 7.12502
rthumb 2.34733 -24.8825
lclavicle 3.4191e-014 -1.92821e-014
lhumerus 6.34464 -5.02956 100.791
lradius 32.5117
lwrist -17.2932
lhand -15.5825 28.1864
lfingers 7.12502
lthumb 10.6029 57.8989
rfemur -62.1644 7.6635 13.0836
rtibia 26.3679
rfoot -1.51903 -16.0228
rtoes -18.5373
lfemur -74.6749 11.1255 -19.6643
ltibia 46.6064
lfoot -9.96367 0.293884
ltoes -9.07167
132
root -22.1938 15.8721 -4.65526 -149.718 -74.4187 -161.627
lowerback 7.68017 1.36355 -1.2829
upperback 3.5679 1.58504 -0.796781
thorax -0.63391 0.731737 -0.227071
lowerneck -14.2075 2.1111 -5.11183
upperneck -2.87438 3.38347 2.06045
head 1.3857 1.70679 1.72802
rclavicle 7.15625e-015 9.93923e-015
rhumerus 15.6233 23.2359 -93.5542
rradius 21.0483
rwrist 8.83575
rhand -24.2827 5.5626
rfingers 7.12502
rthumb 2.20438 -24.4058
lclavicle 7.15625e-015 9.93923e-015
lhumerus 6.89152 -5.16481 100.87
lradius 33.5822
lwrist -16.8929
lhand -16.9388 28.2518
lfingers 7.12502
lthumb 9.29438 58.0269
rfemur -63.0396 7.36747 13.3573
rtibia 26.68
rfoot -1.94309 -15.5584
rtoes -17.9763
lfemur -75.5774 11.3065 -19.8713
ltibia 46.9015
lfoot -10.083 0.238513
ltoes -8.78843
133
root -22.1896 15.8471 -4.63782 -149.591 -74.2084 -160.965
lowerback 7.825 1.42223 -1.49907
upperback 3.70141 1.6379 -0.809588
thorax -0.582011 0.751832 -0.125107
lowerneck -14.0224 2.13713 -5.14754
upperneck -3.8874 3.38775 2.01882
head 1.01872 1.70718 1.69768
rclavicle -7.95139e-015 4.11484e-014
rhumerus 16.8481 24.3407 -92.6928
rradius 21.3853
rwrist 8.31863
rhand -24.3697 5.52809
rfingers 7.12502
rthumb 2.12026 -24.4411
lclavicle -7.95139e-015 4.11484e-014
lhumerus 7.28981 -5.34651 100.952
lradius 34.65
lwrist -16.5702
lhand -17.9304 28.1908
lfingers 7.12502
lthumb 8.33749 58.0063
rfemur -64.0945 7.0113 13.8098
rtibia 26.9768
rfoot -2.27024 -14.9558
rtoes -17.5839
lfemur -76.7098 11.6049 -20.1247
ltibia 47.2764
lfoot -10.1847 0.159056
ltoes -8.91538
134
root -22.1842 15.8299 -4.62247 -149.707 -74.1381 -160.341
lowerback 8.40448 1.48329 -1.60253
upperback 3.82858 1.6866 -0.813974
thorax -0.773241 0.770257 -0.0882053
lowerneck -13.9061 2.39191 -4.06828
upperneck -4.59807 3.54728 0.435816
head 0.794615 1.73777 0.991066
rclavicle 1.86858e-014 8.05078e-014
rhumerus 17.9994 25.9731 -91.4299
rradius 22.0387
rwrist 7.09142
rhand -24.4675 5.38593
rfingers 7.12502
rthumb 2.02586 -24.5842
lclavicle 1.86858e-014 8.05078e-014
lhumerus 7.57924 -5.57926 101.11
lradius 35.7984
lwrist -16.2933
lhand -18.4758 27.951
lfingers 7.12502
lthumb 7.81116 57.7867
rfemur -64.783 6.43789 14.6149
rtibia 27.2601
rfoot -2.67477 -14.1811
rtoes -17.7521
lfemur -77.5403 11.8371 -20.3026
ltibia 47.6709
lfoot -10.3459 0.0150572
ltoes -8.99592
135
root -22.1773 15.8005 -4.61359 -149.966 -73.9131 -159.224
lowerback 8.42119 1.57617 -1.7466
upperback 3.869 1.79469 -0.847807
thorax -0.745043 0.821062 -0.0519067
lowerneck -15.2407 4.04172 0.162616
upperneck -2.56773 5.25319 -3.2165
head 1.87674 2.44315 -0.734326
rclavicle -5.04913e-014 -5.10877e-014
rhumerus 19.0615 27.5557 -90.2759
rradius 22.7607
rwrist 5.84185
rhand -24.5257 5.01338
rfingers 7.12502
rthumb 1.9696 -24.9573
lclavicle -5.04913e-014 -5.10877e-014
lhumerus 7.45895 -5.94457 101.052
lradius 37.3479
lwrist -15.7135
lhand -19.1322 27.9161
lfingers 7.12502
lthumb 7.1775 57.7744
rfemur -65.8563 6.0008 15.5531
rtibia 27.5068
rfoot -3.24572 -13.1711
rtoes -17.9694
lfemur -78.7678 12.2051 -20.3722
ltibia 48.1531
lfoot -10.3833 0.000213589
ltoes -8.42862
136
root -22.1746 15.7783 -4.6033 -150.042 -73.768 -158.589
lowerback 8.92708 1.61469 -1.83469
upperback 3.92944 1.81274 -1.01175
thorax -0.958266 0.827031 -0.185582
lowerneck -14.2559 2.79616 -3.29148
upperneck -4.87861 3.97099 0.101212
head 0.770232 1.93024 0.774581
rclavicle 4.6118e-014 1.63003e-014
rhumerus 20.0741 28.2945 -89.6806
rradius 23.2334
rwrist 5.24849
rhand -24.549 4.78674
rfingers 7.12502
rthumb 1.94718 -25.1841
lclavicle 4.6118e-014 1.63003e-014
lhumerus 7.48873 -6.30178 100.871
lradius 38.7433
lwrist -15.1091
lhand -19.5755 28.1766
lfingers 7.12502
lthumb 6.74965 58.049
rfemur -66.6157 5.64293 16.1937
rtibia 27.7631
rfoot -3.76599 -12.4598
rtoes -17.7772
lfemur -79.6621 12.3637 -20.422
ltibia 48.6251
lfoot -10.5631 0.0462237
ltoes -7.95611
137
root -22.1665 15.7434 -4.58714 -150.584 -73.5284 -157.044
lowerback 8.86154 1.73691 -1.75514
upperback 3.96646 1.97916 -1.07077
thorax -0.880966 0.909441 -0.304468
lowerneck -14.1014 2.63856 -3.87446
upperneck -5.79615 3.8077 0.725421
head 0.430581 1.86667 1.04611
rclavicle -1.35174e-014 -1.35174e-014
rhumerus 21.2875 28.6618 -88.9236
rradius 23.6829
rwrist 4.92708
rhand -24.3521 4.39668
rfingers 7.12502
rthumb 2.13733 -25.5724
lclavicle -1.35174e-014 -1.35174e-014
lhumerus 7.86216 -6.63868 100.908
lradius 39.8416
lwrist -14.4184
lhand -20.1263 28.0956
lfingers 7.12502
lthumb 6.21787 57.9843
rfemur -67.906 4.90967 17.787
rtibia 28.0337
rfoot -4.46119 -10.907
rtoes -17.7624
lfemur -81.0985 12.7516 -20.3874
ltibia 49.15
lfoot -10.5412 0.0216115
ltoes -7.54079
138
root -22.1616 15.7178 -4.57428 -150.868 -73.6092 -156.3
lowerback 9.35439 1.83413 -1.75373
upperback 4.22298 2.07959 -1.04025
thorax -0.887907 0.950417 -0.293983
lowerneck -14.0839 2.40385 -4.64819
upperneck -6.60425 3.57927 1.29155
head 0.15291 1.77119 1.33862
rclavicle -3.49861e-014 -5.42682e-014
rhumerus 22.8318 29.2617 -87.5285
rradius 24.2067
rwrist 4.12691
rhand -24.239 3.84587
rfingers 7.12502
rthumb 2.24655 -26.1221
lclavicle -3.49861e-014 -5.42682e-014
lhumerus 8.40293 -7.01331 101.23
lradius 40.74
lwrist -13.8512
lhand -21.3879 27.2537
lfingers 7.12502
lthumb 4.99984 57.1747
rfemur -68.6073 4.93077 17.9008
rtibia 28.3822
rfoot -4.47331 -11.0483
rtoes -17.9197
lfemur -81.8724 12.7779 -20.3143
ltibia 49.5684
lfoot -10.6821 -0.0481888
ltoes -7.23283
139
root -22.1589 15.6844 -4.56521 -150.679 -73.337 -155.743
lowerback 9.29615 2.07061 -1.99587
upperback 4.38747 2.36455 -1.08066
thorax -0.69578 1.08354 -0.223552
lowerneck -13.8092 2.69518 -3.73512
upperneck -7.25419 3.7946 0.324471
head -0.0767717 1.84658 0.867121
rclavicle -7.07673e-014 -1.5704e-014
rhumerus 24.4859 30.4956 -85.5068
rradius 24.7171
rwrist 2.19672
rhand -24.533 3.76792
rfingers 7.12502
rthumb 1.96262 -26.2028
lclavicle -7.07673e-014 -1.5704e-014
lhumerus 8.64529 -7.31627 101.715
lradius 41.7338
lwrist -13.6444
lhand -21.5792 27.357
lfingers 7.12502
lthumb 4.81507 57.2823
rfemur -69.5879 4.79008 18.382
rtibia 28.7449
rfoot -4.8659 -10.494
rtoes -18.025
lfemur -82.9798 13.0964 -20.5598
ltibia 50.013
lfoot -10.7304 -0.0837193
ltoes -6.96633
